<svg xmlns="http://www.w3.org/2000/svg" viewBox="0 0 456.7 77.5" style="enable-background:new 0 0 456.7 77.5" xml:space="preserve"><path d="m380.4 75.7 25.4-74H431l25.7 74h-20.2l-3.7-13.4h-28.6l-3.8 13.4h-20zm35.7-52.1-7.5 24.5h20.1l-7.5-24.5L420 20l-.8-3.8-.3-1.3-.2-1.3-.3 1.3-.2 1.3-.1.5-.1.3a41.8 41.8 0 0 1-1.9 6.6zM298.4 75.7v-74h19.5l27.9 38 2 3.5 2 3.6 1.4 3 1.4 2.9-.3-2.4-.2-2.4-.3-4.8-.1-5V1.8h19.4v74h-19.4l-28.1-38.2a51.9 51.9 0 0 1-4.2-7.4l-1.4-2.9c-.4-.9-.7-1.9-1.2-2.8a93.4 93.4 0 0 1 1.2 14.7v36.5h-19.6zm-88-54.9a36.7 36.7 0 0 1 14.9-15.1A40.8 40.8 0 0 1 248 .6l2.9.2a42.2 42.2 0 0 1 16.6 6 40.1 40.1 0 0 1 17.3 32.8l-.1 2.4-.2 2.3a38.6 38.6 0 0 1-2.4 9.5 37.1 37.1 0 0 1-15.2 17.5 41.8 41.8 0 0 1-21.7 6.2l-1.6-.1h-1.5a42.2 42.2 0 0 1-15.3-4.3c-6.5-3.4-11.6-8.2-15.3-14.5s-5.6-12.9-5.6-19.7l.1-3c.1-1 .2-2.1.5-3.1.4-2 .9-4.1 1.6-6 .4-2.2 1.3-4.1 2.3-6zm52.8 26.6.6-2.4.5-2.6.1-1.6.1-1.5-.1-1.4v-1.4c-.4-3.3-1.4-6.5-3-9.6a18 18 0 0 0-6.7-7.2l-2.3-1-2.3-.8a9 9 0 0 0-2.3-.3c-.8-.2-1.5-.2-2.3-.2-3.9 0-7.6 1.2-10.9 3.7a19.6 19.6 0 0 0-7 9.9l-.2.5v.5l-.6 2.2-.5 2.2-.2 1.6v2.4l.1.8c.2 4.1 1.5 8 3.7 11.7 2.3 3.6 5.5 6 9.5 7.2l1.4.5 1.5.2 1.4.2h1.4a18 18 0 0 0 11-3.6c3.3-2.6 5.7-5.9 7.1-10zm-82.1 21.4a32.6 32.6 0 0 1-11.8 5.1 80 80 0 0 1-12.9 1.7l-3.7.1h-23.8v-74H154l3.6.1c4.2.2 8.3.8 12.3 1.7a31.3 31.3 0 0 1 21.4 17.1c2.4 5 3.8 10.1 4.1 15.3l.1 1.4v2.9a40.4 40.4 0 0 1-3.9 15.9c-2.4 5.1-6 9.4-10.5 12.7zm-32.4-9.7.7.1h.8l.8.1h3.1l2.4-.2c2-.2 4-.5 5.9-1 1.9-.5 3.7-1.4 5.2-2.4 2.5-1.8 4.3-4.2 5.5-7.2 1.2-3.1 1.9-6.3 1.9-9.6V38l-.1-.9c-.2-2.9-.9-5.8-2.1-8.5-1.2-2.8-2.9-5-5.1-6.6-1.6-1.3-3.5-2.2-5.5-2.7s-4-.7-6-.8h-7.5v40.6zM68.8 75.7v-74h45.4v16.1H88.6v13h24v15.8h-24v12.5h25.5v16.6H68.8zM9.4 51.9l.1.2.2.1c2.1 2.3 4.5 4.5 7.1 6.5a16 16 0 0 0 9.1 3.1l.2.1h.3l.2.1h1.3l1-.2c1.2-.2 2.4-.7 3.5-1.4a6.8 6.8 0 0 0 2.7-2.6l.2-.5.2-.5.3-1.5.1-1.3c0-2.1-.9-3.8-2.8-5.2a21 21 0 0 0-5.8-3.4l-2.4-.7-2.2-.6h-.2l-.2-.1c-3.8-.9-7.4-2.4-10.7-4.4a16.6 16.6 0 0 1-6.9-8.9L4 28.3l-.3-2.7v-3.4l.3-1.9c.2-1.6.6-3.1 1.2-4.6.5-1.5 1.2-2.9 2.1-4.2 2.5-4.1 5.7-7 9.5-8.8C20.7.9 24.9 0 29.1 0l3 .2 3.3.3a45.3 45.3 0 0 1 15.9 6.1l-6.4 14.3a56 56 0 0 0-6.6-4.1 15.9 15.9 0 0 0-7.5-1.7h-.9a9 9 0 0 0-5 2.4c-1.5 1.3-2.3 2.7-2.3 4.3v.7l.3.7c.2.5.4 1 .8 1.5L25 26a14 14 0 0 0 3.7 2l5.1 1.6a247 247 0 0 1 7.8 2.1c4.3 1.5 7.6 4.1 9.8 7.8 2.2 3.6 3.3 7.4 3.4 11.4v.6l-.1 1.4v1.3c-.5 4-1.8 7.9-3.9 11.5a22.1 22.1 0 0 1-8.5 8.4c-1.3.6-2.7 1.2-4.1 1.6l-4.2 1-3.5.5c-1.1.2-2.2.2-3.4.2h-1.4A41.7 41.7 0 0 1 0 66.7l9.4-14.8z" style="fill:#fff"/></svg>