<svg width="296" height="80" viewBox="0 0 296 80" fill="none" xmlns="http://www.w3.org/2000/svg">
<path d="M271.3 66C271.3 65.7 271.4 65.4 271.5 65.1C271.6 64.8 271.8 64.5 272 64.3C272.2 64.1 272.5 63.9 272.8 63.7C273.1 63.6 273.5 63.5 273.9 63.5C274.4 63.5 274.8 63.6 275.2 63.8C275.6 64 276 64.2 276.3 64.5C276.5 64.8 276.7 65.1 276.9 65.5C277 65.9 277.1 66.3 277.1 66.8C277.1 67.7 276.9 68.4 276.6 69.2C276.3 69.9 275.9 70.6 275.3 71.1C275 71.4 274.8 71.6 274.5 71.8C274.2 72 273.9 72.2 273.6 72.3C273.3 72.4 273.1 72.6 272.9 72.7C272.8 72.8 272.7 72.8 272.5 72.9L271.1 70.9C271.3 70.8 271.6 70.7 271.9 70.5C272.2 70.4 272.5 70.2 272.8 70C273.1 69.8 273.3 69.5 273.5 69.2C273.7 68.9 273.8 68.6 273.8 68.2C273.2 68.2 272.6 68 272.1 67.6C271.5 67.3 271.3 66.8 271.3 66ZM279.1 66C279.1 65.7 279.2 65.4 279.3 65.1C279.4 64.8 279.6 64.5 279.8 64.3C280 64.1 280.3 63.9 280.6 63.7C280.9 63.6 281.3 63.5 281.7 63.5C282.2 63.5 282.6 63.6 283 63.8C283.4 64 283.8 64.2 284.1 64.5C284.3 64.8 284.5 65.1 284.7 65.5C284.8 65.9 284.9 66.3 284.9 66.8C284.9 67.6 284.8 68.4 284.4 69.2C284.1 69.9 283.7 70.6 283.1 71.1C282.8 71.4 282.6 71.6 282.3 71.8C282 72 281.7 72.2 281.4 72.3C281.1 72.4 280.9 72.6 280.7 72.7C280.6 72.8 280.5 72.8 280.3 72.9L279 70.9C279.2 70.8 279.5 70.7 279.8 70.5C280.1 70.4 280.4 70.2 280.7 70C281 69.8 281.2 69.5 281.4 69.2C281.6 68.9 281.7 68.6 281.7 68.2C281.1 68.2 280.5 68 280 67.6C279.3 67.3 279.1 66.8 279.1 66ZM14.5 7.30002C14.5 7.60002 14.4 7.90001 14.3 8.20001C14.2 8.50001 14 8.80003 13.8 9.00003C13.3 9.50003 12.6 9.80002 11.9 9.80002C11.5 9.80002 11 9.70003 10.6 9.50003C10.2 9.30003 9.79999 9.10002 9.49999 8.80002C9.19999 8.50002 8.99999 8.10002 8.89999 7.80002C8.79999 7.40002 8.69999 7.00003 8.69999 6.50003C8.69999 5.60003 8.89999 4.90001 9.19999 4.10001C9.49999 3.40001 9.89999 2.70001 10.5 2.20001C10.8 1.90001 11 1.70003 11.3 1.50003C11.6 1.30003 11.9 1.10003 12.2 1.00003C12.5 0.900031 12.7 0.700006 12.9 0.600006C13.1 0.500006 13.2 0.500024 13.3 0.400024L14.6 2.40002C14.3 2.50002 14 2.60002 13.8 2.80002C13.5 2.90002 13.2 3.10002 12.9 3.30002C12.6 3.50002 12.4 3.80001 12.2 4.10001C12 4.40001 11.9 4.70001 11.9 5.10001C12.6 5.10001 13.1 5.30001 13.6 5.70001C14.3 6.10001 14.5 6.60002 14.5 7.30002ZM6.69999 7.30002C6.69999 7.90002 6.49999 8.50003 5.99999 9.00003C5.79999 9.20003 5.49999 9.40001 5.19999 9.60001C4.89999 9.70001 4.49999 9.80002 4.09999 9.80002C3.69999 9.80002 3.2 9.70003 2.8 9.50003C2.4 9.30003 1.99999 9.10002 1.69999 8.80002C1.39999 8.50002 1.19999 8.10002 1.09999 7.80002C0.999991 7.40002 0.899994 7.00003 0.899994 6.50003C0.899994 5.60003 1.09999 4.90001 1.39999 4.10001C1.69999 3.40001 2.09999 2.70001 2.69999 2.20001C2.89999 2.00001 3.19999 1.70003 3.49999 1.50003C3.79999 1.30003 4.09999 1.10003 4.39999 1.00003C4.69999 0.900031 4.89999 0.700006 5.09999 0.600006C5.29999 0.500006 5.39999 0.500024 5.49999 0.400024L6.8 2.40002C6.6 2.50002 6.29999 2.60002 5.99999 2.80002C5.69999 2.90002 5.39999 3.10002 5.09999 3.30002C4.79999 3.50002 4.59999 3.80001 4.39999 4.10001C4.19999 4.40001 4.09999 4.70001 4.09999 5.10001C4.79999 5.10001 5.3 5.30001 5.8 5.70001C6.4 6.10001 6.69999 6.60002 6.69999 7.30002ZM252 64.2H255.8L267.6 43.6H263.8L252 64.2ZM251.9 65.7C250.7 65.7 249.7 66.7 249.7 67.9C249.7 69.1 250.6 70.1 251.9 70.1C253.1 70.1 254.1 69.2 254.1 67.9C254.1 66.6 253.1 65.7 251.9 65.7ZM225.5 60.2L226.6 58.3C231 52.2 233.9 53.9 232.6 56.2L230.8 59.3C229.7 61.2 226.3 62.6 225.5 60.2ZM250.6 63.1C250.4 62.5 249.7 61.9 249.2 61.8L248.9 62.1C247.6 63.7 246 65 244.4 66.2C245.6 62.6 245.3 57.1 247.7 52.2L244.9 50.7C243.3 52.8 239.9 57.8 236.5 61.8L236.2 62.1C233.5 65.3 230.8 67.8 229.2 67.8C228.4 67.8 227.6 67 227.6 65.3V63.7C230.3 64 233.1 62.3 234.8 59.2L235.8 57.5C239.3 51.5 233.6 49.5 229.7 53L235.1 43.7H231.3L220.5 62.4C220.3 62.2 220.1 62.1 219.8 61.9L219.5 62.2C216.8 65.4 213.3 67.9 210.6 67.9C208.3 67.9 206.9 66.4 208.6 63.4L212.5 56.6C214.7 52.9 218.5 53.5 216.3 57.4L215.8 58.3H218.9L219.4 57.4C221.4 53.9 219.5 51.3 216.4 51.3C213.3 51.3 210.9 52.9 209.3 55.7L205.6 62.1C205.5 62.1 205.4 62 205.4 62L205.1 62.3C202.4 65.5 199.7 68 198.1 68C197.3 68 196.8 67.4 197.7 65.9L205.8 51.8H202L195.3 63.5C192.4 66.1 190.2 67.6 189.5 67.2C188.6 66.8 189.5 65.4 190 64.6L197.4 51.7H193.6L186.3 64.4C185.5 65.1 183.9 65.8 183.1 66.3C184.3 62.7 184 57.2 186.4 52.3L183.6 50.8C182 52.9 173.3 64.5 169.9 68.5C170.2 69 170.8 69.4 171.3 69.8C173.4 67.3 180.6 58.1 182 56.3C180.5 60.2 181.3 67.3 177.7 67.3C176.4 67.3 175.9 65.9 175.9 65.9L173.5 67.1C173.5 67.1 174.2 70.1 177.6 70.1C178 70.1 178.3 70.1 178.7 70H178.8C180.7 69.7 183.4 68.9 185.2 67.6C185.2 69.1 186.1 70.1 187.7 70.1C189.8 70.1 192.1 68.2 193.9 66.5C193.5 68.5 194.7 70.1 197.1 70.1C199.4 70.1 202.1 68.2 204.5 65.7C204.5 68.2 206.5 70.1 209.6 70.1C212.7 70.1 215.7 68.4 218.3 66.1L216.2 69.8H220L224.3 62.3V65.3C224.3 68.5 224.9 70.2 228 70.2C231.1 70.2 234.7 66.9 237.8 63.2C239.9 60.7 241.8 58.1 243.2 56.3C241.7 60.2 242.5 67.3 238.9 67.3C237.6 67.3 237.1 65.9 237.1 65.9L234.7 67.1C234.7 67.1 235.4 70.1 238.8 70.1C239.2 70.1 239.5 70.1 239.9 70H240C244 69.5 247.8 66.4 250.6 63.1ZM136 62H135.8C134.6 62 133.6 63 133.6 64.3C133.6 64.8 133.7 65.2 134 65.6V65.7C132.2 68.7 127.9 68.2 130.1 64.2L134.8 56.1C137.5 51.6 141.1 53.4 138.8 57.3L136 62ZM110.6 76.2C109.8 77.6 108.5 77.4 108.5 76.4C108.5 75.4 109.4 74.3 112.3 73.2L110.6 76.2ZM81.8 62.4C79.5 66 77.3 67.7 75.7 67.7C74.9 67.7 74.4 67.1 75.3 65.6L80.6 56.4C82.6 52.9 86.7 53.8 84.8 57.2L81.8 62.4ZM69.8 47.7C70.9 45.8 72.2 44.9 73.2 44.9C74.6 44.9 75.3 45.8 75.3 47.2C75.3 50.7 70.9 58 65.1 57.1H64.3L69.8 47.7ZM162.6 61.8L162.3 62.1C159.6 65.3 156.9 67.8 155.3 67.8C154.5 67.8 154 67.2 154.9 65.7L160.3 56.1C161.9 53.2 160.4 51.2 158.3 51.2C156.7 51.2 155 52.1 153.1 54L154.5 51.5H150.7L144.6 62C144.4 61.9 144.3 61.8 144.1 61.7L143.8 62C142.1 63.9 140 64.8 138.1 64.8L141.7 58.7C144 54.7 141.9 51 138.3 51C135.4 51 133.1 52.2 131 55.9L129.1 59.1L127.5 61.9C127.4 61.8 127.3 61.8 127.2 61.7L126.9 62C123.8 65.6 121.1 67.9 118.1 69.2L128.5 51.5H124.7L118 63.1C115.1 65.8 112.8 67.3 112.1 67C111.2 66.6 112.1 65.2 112.6 64.4L120 51.5H116.2L110.2 61.9C110.1 61.8 110 61.8 109.9 61.7L109.6 62C106.9 65.2 104.2 67.7 102.6 67.7C101.8 67.7 101.3 67.1 102.2 65.6L107.6 56C109.2 53.1 107.7 51.1 105.6 51.1C104 51.1 102.3 52 100.4 53.9L101.8 51.4H98L92 61.8C91.9 61.7 91.8 61.7 91.6 61.6L91.3 61.9C88.6 65.1 85.9 67.6 84.3 67.6C83.5 67.6 83 67 83.9 65.5L90 54.8H87.9C88 53.2 86.4 51 83.9 51C81.9 51 79 52.6 77.4 55.4L73.5 62.1C73.2 61.9 72.9 61.7 72.7 61.6L72.4 61.9C69.7 65.1 67.6 67.6 63.8 67.6C61.2 67.6 59.7 65 61.9 61.2L63 59.3C63.7 59.4 64.4 59.5 65.1 59.5C69.1 59.5 73.7 57.4 76.7 52.2C77.8 50.3 78.2 48.6 78.2 47.1C78.2 43.7 76 41.5 73.2 41.5C71.1 41.5 68.7 43 67 45.9L61.1 56C58.9 54.8 57.7 52.7 57.7 50.6C57.7 48.9 58.5 47.1 60.1 45.8L58.9 43.6C56.2 45.5 55 48.1 55 50.6C55 53.6 56.7 56.5 59.8 58.1L58.7 60.1C56 64.7 57.6 69.8 62.9 69.8C67.1 69.8 69 67.9 71.6 65.4C70.8 67.8 72 69.8 74.6 69.8C76.1 69.8 78 68.8 79.8 67.3C80 68.8 81.1 69.8 83.1 69.8C84.9 69.8 86.9 68.7 88.8 67L87.4 69.4H91.2L97 59.3C102.8 52.1 105.4 53 103.7 55.8L98.8 64.3C97.2 67.1 98.3 69.7 101.4 69.7C103.4 69.7 105.7 68.3 107.8 66.3C107.3 68.4 108.3 69.7 110.2 69.7C112 69.7 114.1 68.2 115.8 66.7L113.7 70.3C108.6 71.8 105.4 73.9 105.4 76.8C105.4 80.4 111 81.2 113.7 76.5L116.6 71.5C119.8 70.5 122.9 68.5 126.1 65.3C125.6 70.6 132.6 71.8 136.8 66.4H137.6C139 66.4 140.8 65.9 142.5 64.9L140 69.3H143.8L149.6 59.2C155.4 52 158 52.9 156.3 55.7L151.4 64.2C149.8 67 150.9 69.6 154 69.6C157.1 69.6 160.7 66.3 163.8 62.6C163.7 62.6 163.1 62 162.6 61.8ZM281.2 26.2C278.9 29.9 276.6 31.7 275 31.7C274.2 31.7 273.7 31.1 274.6 29.6L279.9 20.4C281.9 16.9 286 17.8 284.1 21.2L281.2 26.2ZM245 26.4C242.7 30 240.5 31.7 238.9 31.7C238.1 31.7 237.6 31.1 238.5 29.6L243.8 20.4C245.8 16.9 249.9 17.8 248 21.2L245 26.4ZM205.1 40.2C204.3 41.6 203 41.4 203 40.4C203 39.4 203.9 38.3 206.8 37.2L205.1 40.2ZM213.1 11.7C214.2 9.80001 215.5 8.90002 216.5 8.90002C222.5 8.90002 218 23.3 208.4 21.1H207.6L213.1 11.7ZM290.8 25.8L290.5 26.1C287.8 29.3 285.1 31.8 283.5 31.8C282.7 31.8 282.2 31.2 283.1 29.7L295.9 7.60001H292.1L286.5 17.2C285.8 16.1 284.6 15.2 283 15.2C281 15.2 278.1 16.8 276.5 19.6L272.8 26C272.7 26 272.6 25.9 272.6 25.9L272.3 26.2C269.6 29.4 267.3 31.9 265.6 31.9C264.8 31.9 264.3 31.3 265.2 29.8L270.7 20.2C272.3 17.3 270.8 15.3 268.7 15.3C267.1 15.3 265.4 16.2 263.5 18.1L264.9 15.6H261.1L255.1 26C255 25.9 254.9 25.9 254.7 25.8L254.4 26.1C251.7 29.3 249 31.8 247.4 31.8C246.6 31.8 246.1 31.2 247 29.7L253.1 19H251C251.1 17.4 249.5 15.2 247 15.2C245 15.2 242.1 16.8 240.5 19.6L236.8 25.9L236.6 26.1C233.9 29.3 230.8 31.8 229.2 31.8C228.4 31.8 227.9 31.2 228.8 29.7L232.6 23.1C233.9 20.8 233.3 19.5 232.1 18L230 15.5C229.5 14.8 229.5 14 230.2 13.3L228.2 11.2C226.1 13.1 225.9 15.3 227.2 17L227.5 17.4C225.8 19.8 223.6 23 221.1 25.9C221.2 26 221.3 26.1 221.4 26.2C218.3 29.8 215.6 32.1 212.7 33.4L217.5 25.2H213.7L213.3 25.9C211.3 29.4 209 31.9 206.1 31.9C203.5 31.9 203.1 29.3 205.3 25.5L206.4 23.6C207.1 23.7 207.8 23.8 208.5 23.8C221.9 23.8 228.4 5.80002 216.6 5.80002C214.5 5.80002 212.1 7.30001 210.4 10.2L204.5 20.3C202.3 19.1 201.1 17 201.1 14.9C201.1 13.2 201.9 11.4 203.5 10.1L202.3 7.90002C199.6 9.80002 198.4 12.4 198.4 14.9C198.4 17.9 200.1 20.8 203.2 22.4L202.1 24.4C199.4 29 199.9 34.1 205.3 34.1C206.9 34.1 208.2 33.6 209.4 32.9L208.4 34.6C203.3 36.2 200.1 38.2 200.1 41.1C200.1 44.7 205.7 45.5 208.4 40.8L211.3 35.8C215.2 34.6 219.1 31.9 223.2 27.1C223.1 27 223.1 26.9 223 26.7C224.7 24.7 226.1 22.8 229 19L229.5 19.6C230 20.2 230.2 21 229.7 21.7L225.7 28.6C224.1 31.4 225.2 34 228.3 34C230.2 34 232.6 32.8 234.7 31C234.7 32.7 235.8 34 238 34C239.5 34 241.4 33 243.2 31.5C243.4 33 244.5 34 246.5 34C248.3 34 250.3 32.9 252.2 31.2L250.8 33.6H254.6L260.4 23.5C266.2 16.3 268.8 17.2 267.1 20L262.2 28.5C260.6 31.3 261.7 33.9 264.8 33.9C266.8 33.9 268.6 32.5 270.8 30.6C270.6 32.5 271.8 33.9 274.1 33.9C275.6 33.9 277.5 32.9 279.3 31.4C279.5 32.9 280.6 33.9 282.6 33.9C285.7 33.9 289.3 30.6 292.4 26.9C291.9 26.6 291.3 26 290.8 25.8ZM178.5 20.5C180.7 16.8 184.5 17.4 182.3 21.3L181.8 22.2C180 25.3 177.5 25.2 176.1 24.7L178.5 20.5ZM175.5 34.1C179.8 34.1 184 30.8 187.2 27.1C186.9 26.6 186.3 26 185.8 25.8L185.5 26.1C182.8 29.3 179.3 31.8 176.6 31.8C174.3 31.8 172.9 30.3 174.6 27.3L175 26.6C177.4 27.6 182 27.1 184.8 22.2L185.3 21.3C187.3 17.8 185.4 15.2 182.3 15.2C179.3 15.2 176.8 16.8 175.2 19.6L171.5 25.9C171.5 25.9 171.4 25.9 171.4 25.8L171.1 26.1C168.4 29.3 165.7 31.8 164.1 31.8C163.3 31.8 162.8 31.2 163.7 29.7L169.1 20.1C170.7 17.2 169.2 15.2 167.1 15.2C165.5 15.2 163.7 16.1 161.8 18.1L167.8 7.60001H164L153.3 26.1C153.2 26 153 25.9 152.9 25.8L152.6 26.1C149.9 29.3 147.2 31.8 145.6 31.8C144.8 31.8 144.3 31.2 145.2 29.7L153.3 15.6H156.4L157.5 13.8H154.4L158 7.60001H154.2L150.6 13.8H147.2L146.1 15.6H149.5L141.9 28.8C140.3 31.6 141.4 34.2 144.5 34.2C146.4 34.2 148.4 33 150.4 31.2L148.9 33.8H152.7L158.4 23.8C164.2 16.5 166.8 17.4 165.2 20.2L160.3 28.7C158.7 31.5 159.8 34.1 162.9 34.1C165.2 34.1 167.7 32.3 170.2 29.9C170.4 32.3 172.4 34.1 175.5 34.1ZM48 20.5C50.2 16.8 54 17.4 51.8 21.3L51.3 22.2C49.5 25.3 47 25.2 45.6 24.7L48 20.5ZM71.1 29.7L76.4 20.5C78.4 17 82.5 17.9 80.6 21.3L77.7 26.5C75.4 30.1 73.2 31.8 71.6 31.8C70.7 31.7 70.2 31.2 71.1 29.7ZM125.1 20.5C127.3 16.8 131.1 17.4 128.9 21.3L128.4 22.2C126.6 25.3 124.2 25.2 122.7 24.7L125.1 20.5ZM67.3 30C66.7 32.2 67.9 34.1 70.4 34.1C71.9 34.1 73.8 33.1 75.6 31.6C75.8 33.1 76.9 34.1 78.9 34.1C80.9 34.1 83.1 32.7 85.3 30.8C84.9 32.8 85.8 34.1 87.7 34.1C89.8 34.1 92.1 32.2 93.9 30.5C93.5 32.5 94.7 34.1 97.1 34.1C100.2 34.1 103.8 30.8 106.9 27.1C106.9 27.1 106.8 27 106.8 26.9C108.9 24.5 110.7 21.9 112 20.1C110.5 24 111.3 31.1 107.7 31.1C106.4 31.1 105.9 29.7 105.9 29.7L103.5 30.9C103.5 30.9 104.2 34 107.6 34C108 34 108.3 34 108.7 33.9H108.8C111.6 33.5 114.3 31.8 116.7 29.7C116.8 32.2 118.7 34 121.8 34C126.1 34 130.3 30.7 133.5 27C133.2 26.5 132.6 25.9 132.1 25.7L131.8 26C129.1 29.2 125.6 31.7 122.9 31.7C120.6 31.7 119.2 30.2 120.9 27.2L121.3 26.5C123.7 27.5 128.3 27 131.1 22.1L131.6 21.2C133.6 17.7 131.7 15.1 128.6 15.1C125.5 15.1 123.1 16.7 121.5 19.5L117.8 25.8H117.7L117.4 26.1C116.1 27.7 114.5 29 112.9 30.2C114.1 26.6 113.8 21.1 116.2 16.2L113.4 14.7C111.8 16.8 108.4 21.8 105 25.8L105.1 25.9L105 26.1C102.3 29.3 99.6 31.8 98 31.8C97.2 31.8 96.7 31.2 97.6 29.7L105.7 15.6H101.9L95.2 27.3C92.3 29.9 90.1 31.4 89.4 31C88.5 30.6 89.4 29.2 89.9 28.4L97.3 15.5H93.5L87.5 25.9C87.4 25.8 87.3 25.8 87.2 25.7L86.9 26C84.2 29.2 81.5 31.7 79.9 31.7C79.1 31.7 78.6 31.1 79.5 29.6L85.6 18.9H83.5C83.6 17.3 82 15.1 79.5 15.1C77.5 15.1 74.6 16.7 73 19.5L69.2 26.1C69 26 68.8 25.8 68.6 25.7L68.3 26C65.6 29.2 62.4 31.7 59.8 31.7C57.5 31.7 56.1 30.2 57.8 27.2L61.7 20.4C63.9 16.7 67.7 17.3 65.5 21.2L65 22.1H68.1L68.6 21.2C70.6 17.7 68.7 15.1 65.6 15.1C62.5 15.1 60.5 16.7 58.9 19.5L55.1 25.9C55 25.8 54.9 25.8 54.8 25.7L54.5 26C51.8 29.2 48.6 31.7 45.9 31.7C43.6 31.7 42.2 30.2 43.9 27.2L44.3 26.5C46.7 27.5 51.3 27 54.1 22.1L54.6 21.2C56.6 17.7 54.7 15.1 51.6 15.1C48.5 15.1 46.1 16.7 44.5 19.5L40.5 26.3C38.1 30.3 40.2 34 44.6 34C47.9 34 50.6 32 53.4 29.4C53.3 32 55.3 34 58.5 34C61.9 34.1 64.6 32.3 67.3 30ZM30.4 16L33.5 10.8C36.3 6.00002 39.8 8.80002 37.9 12.4C36.4 15.1 34.3 16 30.4 16ZM26.3 33.3C24 33.3 22.3 32.8 20.9 32C21.6 31.2 22.2 30.3 22.8 29.3L29.2 18.3L30.2 18.4C39 20.2 35.5 33.3 26.3 33.3ZM35.7 17.8C43.3 15.2 43.9 5.70001 36.4 5.70001C34.3 5.70001 31.9 7.20001 30.2 10.1L20 27.7C19.6 28.5 19.1 29.2 18.5 29.8C15.9 26.2 16.6 20.8 20.3 18.5L18.8 16.6C10.9 21.6 13.2 36.2 26.4 36.2C37.7 36.2 42.9 22.6 35.7 17.8Z" fill="white"/>
</svg>
